<svg xmlns="http://www.w3.org/2000/svg" width="47.384" height="49.509" viewBox="0 0 47.384 49.509">
    <defs>
        <style>
            .cls-2{fill:none;stroke:#fff;stroke-linecap:round;stroke-linejoin:round;stroke-width:1.8px}
        </style>
    </defs>
    <g id="Group_20374" opacity="0.745" transform="translate(.9 .9)">
        <path id="Path_34331" d="M363.267 144.5v-17.345h-37.781v47.709h37.781V171.4" class="cls-2" transform="translate(-325.486 -127.155)"/>
        <path id="Line_29" d="M13.02 0L0 0" class="cls-2" transform="translate(8.01 22.128)"/>
        <path id="Line_30" d="M9.803 0L0 0" class="cls-2" transform="translate(8.01 29.888)"/>
        <path id="Line_31" d="M9.838 0L0 0" class="cls-2" transform="translate(21.831 29.888)"/>
        <path id="Line_32" d="M12.203 0L0 0" class="cls-2" transform="translate(8.01 37.65)"/>
        <path id="Line_33" d="M6.761 0L0 0" class="cls-2" transform="translate(24.925 38.108)"/>
        <path id="Line_34" d="M4.465 0L0 0" class="cls-2" transform="translate(27.22 21.67)"/>
        <circle id="Ellipse_1789" cx="11.926" cy="11.926" r="11.926" class="cls-2" transform="translate(17.813 18.348)"/>
        <path id="Line_35" d="M0 0L7.039 7.039" class="cls-2" transform="translate(38.172 38.706)"/>
        <path id="Path_34332" d="M340.555 139.45a3.855 3.855 0 1 1 3.855-3.855 3.86 3.86 0 0 1-3.855 3.855z" class="cls-2" transform="translate(-326.587 -127.605)"/>
        <path id="Path_34333" d="M343.116 139.878l2.649.776c1.6.343 1.991 1.41 2.236 4.134" class="cls-2" transform="translate(-327.217 -128.404)"/>
        <path id="Path_34334" d="M338.3 139.878l-2.649.776c-1.6.343-1.991 1.41-2.236 4.134" class="cls-2" transform="translate(-326.265 -128.404)"/>
    </g>
</svg>
