<svg xmlns="http://www.w3.org/2000/svg" width="57.457" height="58.004" viewBox="0 0 57.457 58.004">
    <defs>
        <style>
            .cls-1{fill:none;stroke:#fff;stroke-linecap:round;stroke-linejoin:round;stroke-width:1.5px}
        </style>
    </defs>
    <g id="Group_19068" transform="translate(-413.603 -316.679)">
        <path id="Path_28462" d="M466.085 360.471a28 28 0 0 0 .079-29.454" class="cls-1"/>
        <path id="Path_28463" d="M452.892 319.765a27.978 27.978 0 1 0-.152 51.894" class="cls-1"/>
        <path id="Line_12" d="M0 0L33.665 0" class="cls-1" transform="translate(436.645 345.681)"/>
        <path id="Line_13" d="M0 0L3.26 0" class="cls-1" transform="translate(414.353 345.681)"/>
        <path id="Line_14" d="M0 55.956L0 0" class="cls-1" transform="translate(442.332 317.703)"/>
        <path id="Path_28464" d="M448.763 323.517a26.587 26.587 0 0 0-6.431-5.814" class="cls-1"/>
        <path id="Path_28465" d="M455.406 354.155a39.724 39.724 0 0 0 .027-16.82" class="cls-1"/>
        <path id="Path_28466" d="M442.332 373.659a26.792 26.792 0 0 0 6.635-6.06" class="cls-1"/>
        <path id="Path_28467" d="M429.44 336.442c3.3-13.215 12.892-18.739 12.892-18.739" class="cls-1"/>
        <path id="Path_28468" d="M442.332 373.659s-9.593-5.517-12.891-18.729" class="cls-1"/>
        <path id="Path_28469" d="M421.49 364.348c4.515-2.39 11.323-4.678 20.842-4.678a54.688 54.688 0 0 1 6.134.336" class="cls-1"/>
        <path id="Path_28470" d="M448.319 331.373a54.994 54.994 0 0 1-5.987.319c-9.516 0-16.325-2.286-20.841-4.676" class="cls-1"/>
        <path id="Path_28471" d="M457.2 330.518a3.34 3.34 0 1 1 3.34-3.34 3.344 3.344 0 0 1-3.34 3.34z" class="cls-1"/>
        <path id="Path_28472" d="M458.875 330.2l2.3.672c1.384.3 1.725 1.142 1.938 3.5" class="cls-1"/>
        <path id="Path_28473" d="M455.531 330.2l-2.3.672c-1.384.3-1.725 1.142-1.938 3.5" class="cls-1"/>
        <circle id="Ellipse_1601" cx="9.244" cy="9.244" r="9.244" class="cls-1" transform="translate(447.959 318.846)"/>
        <path id="Path_28474" d="M457.2 365.826a3.339 3.339 0 1 1 3.34-3.339 3.344 3.344 0 0 1-3.34 3.339z" class="cls-1"/>
        <path id="Path_28475" d="M458.875 365.505l2.3.672c1.384.3 1.725 1.142 1.938 3.5" class="cls-1"/>
        <path id="Path_28476" d="M455.531 365.505l-2.3.672c-1.384.3-1.725 1.142-1.938 3.5" class="cls-1"/>
        <circle id="Ellipse_1602" cx="9.244" cy="9.244" r="9.244" class="cls-1" transform="translate(447.959 354.155)"/>
        <path id="Path_28477" d="M427.173 348.114a3.34 3.34 0 1 1 3.339-3.339 3.343 3.343 0 0 1-3.339 3.339z" class="cls-1"/>
        <path id="Path_28478" d="M428.845 347.793l2.3.672c1.384.3 1.725 1.142 1.937 3.5" class="cls-1"/>
        <path id="Path_28479" d="M425.5 347.793l-2.3.672c-1.383.3-1.724 1.142-1.937 3.5" class="cls-1"/>
        <circle id="Ellipse_1603" cx="9.244" cy="9.244" r="9.244" class="cls-1" transform="rotate(-80.73 416.086 -68.356)"/>
    </g>
</svg>
