<svg xmlns="http://www.w3.org/2000/svg" width="60.842" height="58.496" viewBox="0 0 60.842 58.496">
    <defs>
        <style>
            .cls-1{fill:none;stroke:#fff;stroke-linecap:round;stroke-linejoin:round;stroke-width:1.5px}
        </style>
    </defs>
    <g id="Group_19070" transform="translate(-27.466 -223.426)">
        <circle id="Ellipse_1604" cx="5.613" cy="5.613" r="5.613" class="cls-1" transform="translate(52.274 269.945)"/>
        <path id="Path_28485" d="M51.709 270.406a30.315 30.315 0 0 1-2.114-2.274 2.652 2.652 0 0 1-.707-2.159l.43-3.776-4.638-.773-.721 6.671a5.338 5.338 0 0 0 1.458 4.462l4.633 4.765" class="cls-1"/>
        <path id="Path_28486" d="M45.248 261.6c.15-2.554.825-3.492 1.745-3.54s2.481-.017 2.162 1.608l-.473 2.419" class="cls-1"/>
        <path id="Path_28487" d="M64.065 270.406a30.21 30.21 0 0 0 2.115-2.274 2.651 2.651 0 0 0 .706-2.159l-.43-3.776 4.639-.773.72 6.671a5.338 5.338 0 0 1-1.458 4.462l-4.632 4.765" class="cls-1"/>
        <path id="Path_28488" d="M70.526 261.6c-.15-2.554-.824-3.492-1.745-3.54s-2.48-.017-2.162 1.608l.474 2.419" class="cls-1"/>
        <path id="Path_28489" d="M79.122 228.8a5.614 5.614 0 1 1-2.054 7.668 5.613 5.613 0 0 1 2.054-7.668z" class="cls-1"/>
        <path id="Path_28490" d="M80.556 241.586a30.48 30.48 0 0 1-.913 2.969 2.65 2.65 0 0 1-1.516 1.691l-3.485 1.515 1.65 4.4 6.137-2.712a5.333 5.333 0 0 0 3.135-3.493l1.81-6.394" class="cls-1"/>
        <path id="Path_28491" d="M76.163 251.583c-2.286 1.147-3.436 1.032-3.938.259s-1.255-2.14.312-2.677l2.331-.8" class="cls-1"/>
        <path id="Path_28492" d="M74.378 230.886a30.432 30.432 0 0 0-3.027-.694 2.651 2.651 0 0 0-2.223.467l-3.055 2.261-2.989-3.631 5.416-3.959a5.339 5.339 0 0 1 4.594-.969l6.442 1.63" class="cls-1"/>
        <path id="Path_28493" d="M63.525 229.691c-2.138 1.407-2.612 2.46-2.194 3.282s1.226 2.156 2.474 1.068l1.858-1.62" class="cls-1"/>
        <path id="Path_28494" d="M31.038 238.521a5.614 5.614 0 1 1 7.669-2.055 5.614 5.614 0 0 1-7.669 2.055z" class="cls-1"/>
        <path id="Path_28495" d="M41.4 230.886a30.411 30.411 0 0 1 3.028-.694 2.649 2.649 0 0 1 2.222.467l3.05 2.261 2.989-3.631-5.417-3.959a5.337 5.337 0 0 0-4.593-.969l-6.443 1.63" class="cls-1"/>
        <path id="Path_28496" d="M52.25 229.691c2.137 1.407 2.612 2.46 2.193 3.282s-1.226 2.156-2.474 1.068l-1.858-1.62" class="cls-1"/>
        <path id="Path_28497" d="M35.219 241.586a30.314 30.314 0 0 0 .912 2.969 2.65 2.65 0 0 0 1.516 1.691l3.485 1.515-1.649 4.4-6.138-2.712a5.333 5.333 0 0 1-3.135-3.493l-1.81-6.394" class="cls-1"/>
        <path id="Path_28498" d="M39.611 251.583c2.287 1.147 3.436 1.032 3.938.259s1.255-2.14-.312-2.677l-2.331-.8" class="cls-1"/>
        <path id="Path_28499" d="M79.676 250.962a21.947 21.947 0 0 1-8.053 14.3" class="cls-1"/>
        <path id="Path_28500" d="M50.259 227.5a22.074 22.074 0 0 1 15.064-.07" class="cls-1"/>
        <path id="Path_28501" d="M43.911 265.067a21.938 21.938 0 0 1-7.787-13.916" class="cls-1"/>
    </g>
</svg>
