<svg xmlns="http://www.w3.org/2000/svg" width="60.834" height="65.596" viewBox="0 0 60.834 65.596">
    <defs>
        <style>
            .cls-1{fill:none;stroke:#fff;stroke-linecap:round;stroke-linejoin:round;stroke-width:1.5px}
        </style>
    </defs>
    <g id="Group_19069" transform="translate(-25.551 -119.179)">
        <path id="Path_28480" d="M39.981 153.859l-4.206-1.046-2.643-4.174a2.254 2.254 0 0 0-3.967 2.141l2.882 4.977a2.061 2.061 0 0 0 1.231.955l3.927 1.1s-1.178 6.458-1.064 6.883l-.3 10.225-2.624 6a2.325 2.325 0 0 0 1.057 2.756 2.256 2.256 0 0 0 3.218-1.322l2.737-6.365.087-.436.6-7.451 3.627 6.183 1.849 8a2.255 2.255 0 0 0 2.173 1.659 2.3 2.3 0 0 0 1.052-.258 2.324 2.324 0 0 0 1.1-2.689l-1.947-8.317a2.244 2.244 0 0 0-.372-.758l-4.213-6.622c.094-.2 1.141-6.94 1.141-6.94a2.242 2.242 0 0 0 .711-.332l6.584-4.764a2.253 2.253 0 0 0 .932-1.785l.818-8.419a2.252 2.252 0 0 0-2.213-2.293h-.041a2.253 2.253 0 0 0-2.252 2.213l-.8 7.293-3.85 3.061" class="cls-1"/>
        <path id="Path_28481" d="M42.305 154.475a4.293 4.293 0 1 1 3.489-6.792 4.294 4.294 0 0 1-3.489 6.792z" class="cls-1"/>
        <path id="Path_28482" d="M70.784 150.33l-3.8-1.856-1.674-6.156a2.254 2.254 0 0 0-4.291 1.381l2.077 7.409a2.256 2.256 0 0 0 1.693 1.517l5.279 2.159s.514 7.594.608 7.791c0 0-4.2 9.494-4.27 9.778l-2.863 8.847a2.253 2.253 0 1 0 4.361 1.137l2.75-8.419 3.5-8.466s.93 9.129.978 9.294l1.655 7.652a2.254 2.254 0 0 0 2.163 1.625 2.229 2.229 0 0 0 .631-.091 2.254 2.254 0 0 0 1.534-2.793l-1.583-7.406-1.062-11.864c.114-.425-.361-7.446-.361-7.446l4.764-7.575a2.253 2.253 0 0 0 .525-1.446l-2.336-11.868a2.254 2.254 0 1 0-4.47.578l2.3 10.472-1.966 3.816" class="cls-1"/>
        <path id="Path_28483" d="M73.063 150.813a4.294 4.294 0 1 1 .711-.058 4.38 4.38 0 0 1-.711.058z" class="cls-1"/>
        <path id="Path_28484" d="M85.635 119.929H75.269l2.57 3.278-15.177 11.947-14.835.128a2.8 2.8 0 0 0-.753.227l-11.68 5.391-9.026 1.216-.068 5.684 10.2-1.354a2.828 2.828 0 0 0 .851-.24l11.727-5.415 15.172-.18a2.813 2.813 0 0 0 1.31-.567l15.758-12.4 2.665 3.4z" class="cls-1"/>
    </g>
</svg>
