<svg xmlns="http://www.w3.org/2000/svg" width="66.335" height="43.684" viewBox="0 0 66.335 43.684">
    <defs>
        <style>
            .cls-1{fill:none;stroke:#fff;stroke-linecap:round;stroke-linejoin:round;stroke-width:1.5px}
        </style>
    </defs>
    <g id="Group_19067" transform="translate(-217.978 -130.336)">
        <path id="Path_28451" d="M283.269 150.226l-8.62 6.006-10.258-13.832" class="cls-1"/>
        <path id="Path_28452" d="M264.391 142.4l-10.117-1.6a4.4 4.4 0 0 0-2.766.464l-5.8 3.091a4.413 4.413 0 0 0-2.192 2.772s-.241 1.979-.52 4.229.316 2.8 2.176 3.2c1.967.421 3.967-.829 5.136-4.727l.226-.747s5.4 1.409 8.367.759" class="cls-1"/>
        <path id="Line_8" d="M5.604 0L0 3.499" class="cls-1" transform="translate(269.046 156.232)"/>
        <path id="Path_28453" d="M234.37 159.422l-.892 1.092a2.411 2.411 0 0 0 .371 3.415 2.411 2.411 0 0 0 3.365-.366l.892-1.093a2.411 2.411 0 0 0-.371-3.414 2.41 2.41 0 0 0-3.365.366z" class="cls-1"/>
        <path id="Path_28454" d="M238.749 161.682l-1.491 1.827a2.411 2.411 0 0 0 .371 3.415 2.41 2.41 0 0 0 3.365-.366l1.492-1.828a2.412 2.412 0 0 0-.371-3.414 2.412 2.412 0 0 0-3.366.366z" class="cls-1"/>
        <path id="Path_28455" d="M242.529 164.677l-1.491 1.828a2.411 2.411 0 0 0 .371 3.414 2.411 2.411 0 0 0 3.366-.366l1.491-1.827a2.412 2.412 0 0 0-.371-3.415 2.413 2.413 0 0 0-3.366.366z" class="cls-1"/>
        <path id="Path_28456" d="M246.514 167.422l-1.416 1.735a2.411 2.411 0 0 0 .371 3.415 2.411 2.411 0 0 0 3.365-.366l1.416-1.735a2.411 2.411 0 0 0-.371-3.415 2.411 2.411 0 0 0-3.365.366z" class="cls-1"/>
        <path id="Line_9" d="M9.765 0.845L0 0" class="cls-1" transform="translate(237.901 142.395)"/>
        <path id="Path_28457" d="M219.023 150.226l8.62 6.006L237.9 142.4l-15.114-10.53" class="cls-1"/>
        <path id="Path_28458" d="M251.137 169.7l1.51 1.348a2.411 2.411 0 0 0 3.44-.292 2.41 2.41 0 0 0-.285-3.354l-2.753-2.381" class="cls-1"/>
        <path id="Path_28459" d="M253.049 165.019l3.836 3.318a2.41 2.41 0 0 0 3.44-.293 2.41 2.41 0 0 0-.285-3.353l-3.929-3.4" class="cls-1"/>
        <path id="Path_28460" d="M256.111 161.292l5.468 4.731a2.412 2.412 0 0 0 3.44-.293 2.411 2.411 0 0 0-.286-3.354l-5.56-4.81" class="cls-1"/>
        <path id="Path_28461" d="M259.173 157.566l6.718 5.812a2.411 2.411 0 0 0 3.44-.293 2.411 2.411 0 0 0-.286-3.354l-12.41-9.505" class="cls-1"/>
        <path id="Line_10" d="M0 0L6.264 3.499" class="cls-1" transform="translate(227.642 156.232)"/>
        <path id="Line_11" d="M0 11.015L15.81 0" class="cls-1" transform="translate(264.391 131.38)"/>
    </g>
</svg>
