<svg xmlns="http://www.w3.org/2000/svg" width="59.431" height="39.187" viewBox="0 0 59.431 39.187">
    <defs>
        <style>
            .cls-1{fill:none;stroke:#202940;stroke-linecap:round;stroke-linejoin:round;stroke-width:1.5px}
        </style>
    </defs>
    <g id="Group_19067" transform="translate(-217.978 -130.336)">
        <path id="Path_28451" d="M281.241 149.385l-7.694 5.36-9.156-12.35" class="cls-1" transform="translate(-4.875 -1.184)"/>
        <path id="Path_28452" d="M262.085 142.217l-9.03-1.432a3.93 3.93 0 0 0-2.469.414l-5.178 2.759a3.939 3.939 0 0 0-1.956 2.474s-.215 1.766-.464 3.775.282 2.5 1.942 2.856c1.756.376 3.541-.74 4.584-4.219l.2-.667s4.822 1.258 7.468.677" class="cls-1" transform="translate(-2.569 -1.005)"/>
        <path id="Line_8" d="M5.001 0L0 3.123" class="cls-1" transform="translate(263.67 153.562)"/>
        <path id="Path_28453" d="M234.216 159.327l-.8.975a2.152 2.152 0 0 0 .331 3.048 2.152 2.152 0 0 0 3-.327l.8-.976a2.152 2.152 0 0 0-.331-3.047 2.151 2.151 0 0 0-3 .327z" class="cls-1" transform="translate(-1.495 -2.918)"/>
        <path id="Path_28454" d="M238.53 161.587l-1.331 1.631a2.152 2.152 0 0 0 .331 3.048 2.151 2.151 0 0 0 3-.327l1.332-1.632a2.153 2.153 0 0 0-.331-3.047 2.153 2.153 0 0 0-3.001.327z" class="cls-1" transform="translate(-1.901 -3.161)"/>
        <path id="Path_28455" d="M242.31 164.582l-1.331 1.632a2.152 2.152 0 0 0 .331 3.047 2.152 2.152 0 0 0 3-.327l1.331-1.631a2.153 2.153 0 0 0-.331-3.048 2.153 2.153 0 0 0-3 .327z" class="cls-1" transform="translate(-2.307 -3.483)"/>
        <path id="Path_28456" d="M246.3 167.327l-1.264 1.549a2.152 2.152 0 0 0 .331 3.048 2.152 2.152 0 0 0 3-.327l1.264-1.549A2.152 2.152 0 0 0 249.3 167a2.152 2.152 0 0 0-3 .327z" class="cls-1" transform="translate(-2.744 -3.778)"/>
        <path id="Line_9" d="M8.715 0.754L0 0" class="cls-1" transform="translate(235.872 141.212)"/>
        <path id="Path_28457" d="M219.023 148.253l7.694 5.36 9.156-12.35-13.49-9.4" class="cls-1" transform="translate(0 -.052)"/>
        <path id="Path_28458" d="M251.137 169.2l1.348 1.2a2.152 2.152 0 0 0 3.07-.261 2.151 2.151 0 0 0-.254-2.994l-2.457-2.125" class="cls-1" transform="translate(-3.451 -3.615)"/>
        <path id="Path_28459" d="M253.049 164.619l3.424 2.961a2.151 2.151 0 0 0 3.07-.262 2.151 2.151 0 0 0-.254-2.993l-3.507-3.034" class="cls-1" transform="translate(-3.656 -3.214)"/>
        <path id="Path_28460" d="M256.111 160.892l4.88 4.223a2.153 2.153 0 0 0 3.07-.262 2.152 2.152 0 0 0-.255-2.994l-4.963-4.293" class="cls-1" transform="translate(-3.985 -2.814)"/>
        <path id="Path_28461" d="M258.9 156.777l6 5.188a2.152 2.152 0 0 0 3.07-.262 2.152 2.152 0 0 0-.255-2.994l-11.077-8.484" class="cls-1" transform="translate(-4.042 -2.025)"/>
        <path id="Line_10" d="M0 0L5.591 3.123" class="cls-1" transform="translate(226.716 153.562)"/>
        <path id="Line_11" d="M0 9.832L14.111 0" class="cls-1" transform="translate(259.516 131.38)"/>
    </g>
</svg>
