<svg xmlns="http://www.w3.org/2000/svg" id="noun_Idea_2662161" width="56.76" height="56.76" viewBox="0 0 56.76 56.76">
    <defs>
        <style>
            .cls-1{fill:#fff}
        </style>
    </defs>
    <path id="Path_35114" d="M3.206 35.746a13.439 13.439 0 0 0 .182 2.306c.112.384.227.779 2.549 1.258l-1.58 1.147a.886.886 0 0 0-.307 1.035c.948 2.48-.739 5.726 1.116 7.91a2.752 2.752 0 0 0 1.972.951 33.166 33.166 0 0 0 6.819-.635A26.836 26.836 0 0 1 12.9 56.49a.887.887 0 1 0 1.691.537 28.651 28.651 0 0 0 1.144-7.249 1.79 1.79 0 0 0-2.1-1.8 31.127 31.127 0 0 1-6.38.6.963.963 0 0 1-.737-.329c-.715-.841-.561-2.18-.452-3.192a12.87 12.87 0 0 0 .144-1.579c0-.181-.335-1.934-.3-1.962l2.766-2.008a.9.9 0 0 0-.39-1.595 26.091 26.091 0 0 1-3.234-.658c-.043-.492-.077-1.414-.086-2.192a.887.887 0 0 0-.714-.86 4.443 4.443 0 0 1-2.47-1.633c-.212-.369.96-1.915 1.134-2.187 1.035-1.615 2.209-3.128 3.312-4.695a2.125 2.125 0 0 0 .317-2.167 7.934 7.934 0 0 1 .147-3.828 23.055 23.055 0 0 1 1-3.552 21.828 21.828 0 0 1 3.654-6.35 20.866 20.866 0 0 1 2-2.095 15.922 15.922 0 0 0 1.58-1.3 20.8 20.8 0 0 1 5.708-4.8 22.221 22.221 0 0 0-12.546 9.659 24.922 24.922 0 0 0-3.467 10.256 6.3 6.3 0 0 0 .021 1.689c.058.355.349.9.248 1.237a1.43 1.43 0 0 1-.246.428c-1.156 1.558-2.325 3.115-3.351 4.763A6.448 6.448 0 0 0 0 32.643c-.007 1.03 1.582 2.503 3.206 3.103z" class="cls-1" transform="translate(0 -.885)"/>
    <path id="Path_35115" d="M53.193 44.549a48.63 48.63 0 0 1 5.62-12.061c.483-.808 1.032-1.648 1.613-2.537 1.62-2.479 3.457-5.29 4.2-8.071A16.007 16.007 0 0 0 61.472 7.8 19.83 19.83 0 0 0 46.188 0h-1.466a17.835 17.835 0 0 0-14.069 7.486 17.278 17.278 0 0 0-2.966 15.366 38.46 38.46 0 0 0 4.86 9.656c.429.678.864 1.345 1.3 2.01a41.17 41.17 0 0 1 5.274 10.06 23.791 23.791 0 0 1 .891 6.076 2.648 2.648 0 0 0 2.659 2.559h7a2.656 2.656 0 0 0 2.658-2.522 28.992 28.992 0 0 1 .869-6.141zM50.552 50.6a.883.883 0 0 1-.886.837h-7a.88.88 0 0 1-.886-.848c-.032-.9-.1-2-.251-3.143h9.291c-.142 1.144-.22 2.254-.268 3.154zm.937-6.546c-.149.516-.275 1.062-.383 1.618h-4.155s-.006-22.679-.01-22.711l2.5 1.714a.9.9 0 0 0 1 0l3.881-2.661a.887.887 0 1 0-1-1.463l-3.38 2.317-3.38-2.317a.888.888 0 0 0-1 0l-3.379 2.319-3.378-2.317a.887.887 0 1 0-1 1.463l3.88 2.661a.888.888 0 0 0 1 0l2.5-1.717-.01 22.714h-3.94a15.716 15.716 0 0 0-.431-1.646 43.174 43.174 0 0 0-5.474-10.479c-.43-.659-.86-1.319-1.286-1.99a36.533 36.533 0 0 1-4.661-9.221 15.522 15.522 0 0 1 2.694-13.8 16.057 16.057 0 0 1 12.644-6.764h1.468A18.024 18.024 0 0 1 60.066 8.88a14.271 14.271 0 0 1 2.844 12.544c-.668 2.506-2.346 5.074-3.969 7.558-.591.9-1.149 1.758-1.651 2.6a50.122 50.122 0 0 0-5.8 12.477z" class="cls-1" transform="translate(-15.023)"/>
    <path id="Path_35116" d="M57.887 124a.887.887 0 1 0 0 1.774h9.756a.887.887 0 1 0 0-1.774z" class="cls-1" transform="translate(-31.724 -69.014)"/>
    <path id="Path_35117" d="M105.513 5.288l1.774-1.774a.887.887 0 0 0-1.254-1.254l-1.774 1.774a.887.887 0 0 0 1.254 1.254z" class="cls-1" transform="translate(-57.882 -1.113)"/>
    <path id="Path_35118" d="M118.044 45.606a.887.887 0 0 0 .561 1.122l2.661.887a.887.887 0 0 0 .561-1.683l-2.661-.887a.885.885 0 0 0-1.122.561z" class="cls-1" transform="translate(-65.673 -25.044)"/>
    <path id="Path_35119" d="M115.044 25.054a.886.886 0 0 0 1.122.561l2.661-.887a.887.887 0 0 0-.561-1.683l-2.661.887a.887.887 0 0 0-.561 1.122z" class="cls-1" transform="translate(-64.004 -12.8)"/>
</svg>
