<svg xmlns="http://www.w3.org/2000/svg" width="55.742" height="39.507" viewBox="0 0 55.742 39.507">
    <defs>
        <style>
            .cls-2,.cls-3{fill:none;stroke:#fff;stroke-linecap:round;stroke-linejoin:round;stroke-width:1.8px}.cls-3{fill-rule:evenodd}
        </style>
    </defs>
    <g id="Group_20372" opacity="0.746" transform="translate(.9 .991)">
        <path id="Line_20" d="M53.942 0L0 0" class="cls-2" transform="translate(0 37.616)"/>
        <path id="Path_34299" d="M147.781 363.8H130.2l-5.246-16.531h17.584z" class="cls-2" transform="translate(-124.899 -326.18)"/>
        <path id="Line_21" d="M0 0L2.339 0" class="cls-2" transform="translate(9.137 29.351)"/>
        <path id="Path_34300" d="M162.042 349.75a5.059 5.059 0 0 1-.717-2.181" class="cls-2" transform="translate(-128.471 -326.21)"/>
        <path id="Path_34301" d="M152.6 347.312a6.951 6.951 0 0 1-.668 2.412" class="cls-2" transform="translate(-127.548 -326.184)"/>
        <path id="Path_34302" d="M150.578 341.77a12.027 12.027 0 0 0 2.752 5.8 4.8 4.8 0 0 0 2.977.748h.092a4.8 4.8 0 0 0 2.977-.748 12.027 12.027 0 0 0 2.752-5.8" class="cls-3" transform="translate(-127.416 -325.64)"/>
        <path id="Path_34303" d="M162.062 340.486a18.142 18.142 0 0 0 .64-4.218c.117-2.559.333-4.669-2.291-5.8-3.981-3.834-10.547-1.217-10.5 5.482a14.728 14.728 0 0 0 .6 4.534" class="cls-2" transform="translate(-127.35 -324.356)"/>
        <path id="Path_34304" d="M150.237 339.071a7.625 7.625 0 0 0 1.109-2.015c.195-.014 1.637.757 2.461.877a10.241 10.241 0 0 0 5.028-.773c2.117 2.112 3.9-.071 3.614 2.572" class="cls-2" transform="translate(-127.382 -325.177)"/>
        <path id="Path_34305" d="M162.12 349.986s5.492-.4 7.371 3.144c1.308 2.463.123 8.455.123 8.455-.264 1.33-.775 2.477-4.508 2.477" class="cls-2" transform="translate(-128.549 -326.446)"/>
        <path id="Path_34306" d="M151.656 349.987s-1.134.329-2.522.9" class="cls-2" transform="translate(-127.274 -326.447)"/>
        <path id="Path_34307" d="M153.625 361.648a8.738 8.738 0 0 1 3.4-.574c2.126 0 6.33.025 6.33.025.4-.567.606-4.477.606-4.477" class="cls-2" transform="translate(-127.715 -327.099)"/>
        <path id="Path_34308" d="M151.415 364.557a2.8 2.8 0 0 1 1.993-2.362" class="cls-2" transform="translate(-127.498 -327.646)"/>
        <path id="Path_34309" d="M143.123 334.722c-1.445-.148-2.474-3.659-2.474-3.659-.737.51-3.613 4.042-8.388 2.865" class="cls-2" transform="translate(-125.617 -324.589)"/>
        <path id="Path_34310" d="M145.555 342.987a10.453 10.453 0 0 1-.851-6.115c1.173-9.315-3.3-11.125-4.359-11.161a5.174 5.174 0 0 0-4.249-1.047c-5.927.743-7.809 7.826-6.465 12.618a19.718 19.718 0 0 1 .868 5.907" class="cls-2" transform="translate(-125.318 -323.955)"/>
        <path id="Path_34311" d="M141.688 342.967c-.095-.889-.1-1.466-.1-1.466" class="cls-2" transform="translate(-126.533 -325.614)"/>
        <path id="Path_34312" d="M134.9 341.364a2.713 2.713 0 0 1 .052 1.579" class="cls-2" transform="translate(-125.876 -325.6)"/>
        <path id="Path_34313" d="M134.517 343.123a15.146 15.146 0 0 0-3.751 2.209" class="cls-2" transform="translate(-125.47 -325.773)"/>
        <path id="Path_34314" d="M146.783 344.806a32.9 32.9 0 0 0-5.063-1.683" class="cls-2" transform="translate(-126.546 -325.773)"/>
        <path id="Path_34315" d="M132.253 334.24c.017 3.709 1.925 7.463 5.532 7.463a4.391 4.391 0 0 0 3.926-2.223 13.669 13.669 0 0 0 1.412-4.447" class="cls-2" transform="translate(-125.616 -324.901)"/>
        <path id="Path_34316" d="M178.8 342.787a1.66 1.66 0 0 1-.585-1.809" class="cls-2" transform="translate(-130.122 -325.562)"/>
        <path id="Path_34317" d="M170.05 340.978a1.972 1.972 0 0 1-.55 1.809" class="cls-2" transform="translate(-129.274 -325.562)"/>
        <path id="Path_34318" d="M168.254 335.917a9.434 9.434 0 0 0 2.533 5.34 2.509 2.509 0 0 0 2.07.688h.085c1.146-.005 2.955-.234 3.409-.688a9.445 9.445 0 0 0 2.533-5.34" class="cls-3" transform="translate(-129.151 -325.065)"/>
        <path id="Path_34319" d="M177.3 325.518c-3.663-3.528-9.705-1.118-9.665 5.045a13.539 13.539 0 0 0 .556 4.172c-.055-1 .067-4.617.79-4.672.245-.019.411.216.79.409a3.8 3.8 0 0 0 2.073.832 5.727 5.727 0 0 0 4.845-1.242c.723.055 2.184 3.671 2.128 4.672a16.653 16.653 0 0 0 .591-3.88c.111-2.354.31-4.297-2.108-5.336z" class="cls-2" transform="translate(-129.091 -323.884)"/>
        <path id="Path_34320" d="M169.006 342.984a21.61 21.61 0 0 0-4.534 2.635" class="cls-2" transform="translate(-128.78 -325.759)"/>
        <path id="Path_34321" d="M178.875 342.984a1.3 1.3 0 0 0 .54.381c2.992 1.448 4.352 3.493 4.352 6.166v10.776" class="cls-2" transform="translate(-130.194 -325.759)"/>
        <path id="Line_22" d="M0 0L0 6.751" class="cls-2" transform="translate(48.681 27.34)"/>
    </g>
</svg>
