<svg xmlns="http://www.w3.org/2000/svg" width="52.314" height="62.653" viewBox="0 0 52.314 62.653">
    <defs>
        <style>
            .cls-1{fill:#1f3777}
        </style>
    </defs>
    <g id="noun_leader_925172" transform="translate(-12.598 -5.206)">
        <g id="Group_20996" transform="translate(12.598 5.206)">
            <g id="Group_20995">
                <path id="Path_35120" d="M54.164 5.444a1.048 1.048 0 0 0-.869-.219L39.422 7.97a1.042 1.042 0 0 0-.31.12l-.04.022a1.037 1.037 0 0 0-.233.2l-.035.043a1.04 1.04 0 0 0-.153.269c-.006.015-.009.029-.014.044a1.048 1.048 0 0 0-.06.332v19.318h-17.79a8.2 8.2 0 0 0-8.187 8.189V48.27a4.371 4.371 0 0 0 3.679 4.31v10.915a4.369 4.369 0 0 0 4.364 4.364h5.609a4.369 4.369 0 0 0 4.364-4.364V37.486h7.963v15.2a1.049 1.049 0 1 0 2.1 0v-15.4a7.174 7.174 0 0 0 5.537-6.972v-2h-5.541v-6.163l6.856-1.356v2.546a1.051 1.051 0 0 0 1.253 1.029l15.283-3.023a1.05 1.05 0 0 0 .617-1.683l-3.874-4.86L63 8.366A1.049 1.049 0 0 0 61.776 7l-7.228 1.632V6.255a1.049 1.049 0 0 0-.384-.811zM44.112 30.416a5.074 5.074 0 0 1-5.067 4.972h-10.53v28.107a2.268 2.268 0 0 1-2.266 2.266H20.64a2.268 2.268 0 0 1-2.266-2.266V50.536h-1.412A2.268 2.268 0 0 1 14.7 48.27V36.507a6.1 6.1 0 0 1 6.091-6.091zm-3.437-10.4V9.861l11.774-2.329v10.152zM60.41 9.463l-1.773 5.209a1.047 1.047 0 0 0 .173.992l3.158 3.96-12.34 2.44V20.38l4.074-.806a1.049 1.049 0 0 0 .846-1.029v-7.762z" class="cls-1" transform="translate(-12.598 -5.206)"/>
                <path id="Path_35121" d="M32.614 21.069a7.9 7.9 0 1 0-7.9 7.9 7.911 7.911 0 0 0 7.9-7.9zm-13.706 0a5.8 5.8 0 1 1 5.8 5.8 5.811 5.811 0 0 1-5.801-5.8z" class="cls-1" transform="translate(-13.864 -7.599)"/>
            </g>
        </g>
    </g>
</svg>
