<svg id="Group_19040" data-name="Group 19040" xmlns="http://www.w3.org/2000/svg" width="129.288" height="34.921" viewBox="0 0 129.288 34.921">
  <g id="Group_19036" data-name="Group 19036">
    <g id="Group_19035" data-name="Group 19035">
      <path id="Path_28434" data-name="Path 28434" d="M-86.216,40.917h-3.5v-7.49a3.788,3.788,0,0,0-.464-2.082,1.634,1.634,0,0,0-1.462-.693,2.118,2.118,0,0,0-1.951.986,6.466,6.466,0,0,0-.608,3.247v6.033h-3.5V28.094h2.674l.469,1.641h.194a3.555,3.555,0,0,1,1.492-1.382,4.834,4.834,0,0,1,2.236-.5q2.879,0,3.9,1.881h.31A3.452,3.452,0,0,1-84.9,28.348a5.073,5.073,0,0,1,2.266-.494,4.472,4.472,0,0,1,3.3,1.119,4.905,4.905,0,0,1,1.119,3.583v8.362h-3.511v-7.49a3.773,3.773,0,0,0-.464-2.082,1.634,1.634,0,0,0-1.462-.693,2.178,2.178,0,0,0-1.921.918,5.211,5.211,0,0,0-.637,2.914Z" transform="translate(97.696 -27.831)" fill="#202940"/>
      <path id="Path_28435" data-name="Path 28435" d="M-73.6,40.927l-.678-1.744h-.091a5.143,5.143,0,0,1-1.819,1.543,5.855,5.855,0,0,1-2.436.431A3.943,3.943,0,0,1-81.535,40.1a4.047,4.047,0,0,1-1.059-3,3.381,3.381,0,0,1,1.427-3.01,8.268,8.268,0,0,1,4.306-1.072l2.226-.07v-.56a1.744,1.744,0,0,0-1.995-1.951,9.092,9.092,0,0,0-3.614.93L-81.4,29a10.44,10.44,0,0,1,4.908-1.158,6.119,6.119,0,0,1,3.956,1.122,4.155,4.155,0,0,1,1.378,3.42v8.544Zm-1.033-5.942-1.354.046a4.345,4.345,0,0,0-2.271.552A1.732,1.732,0,0,0-79,37.12q0,1.479,1.7,1.478a2.688,2.688,0,0,0,1.944-.7,2.461,2.461,0,0,0,.728-1.858Z" transform="translate(109.04 -27.841)" fill="#202940"/>
      <path id="Path_28436" data-name="Path 28436" d="M-67.755,40.815l-4.886-12.824h3.658l2.478,7.307a13.133,13.133,0,0,1,.517,2.627h.068A11.384,11.384,0,0,1-65.4,35.3l2.466-7.307h3.658l-4.886,12.824Z" transform="translate(116.516 -27.728)" fill="#202940"/>
      <path id="Path_28437" data-name="Path 28437" d="M-55.41,41.147a6.618,6.618,0,0,1-4.842-1.709,6.476,6.476,0,0,1-1.742-4.84,7.115,7.115,0,0,1,1.611-4.984,5.742,5.742,0,0,1,4.457-1.76A5.649,5.649,0,0,1-51.694,29.4a5.862,5.862,0,0,1,1.513,4.278v1.7H-58.45a3.373,3.373,0,0,0,.883,2.329,3.109,3.109,0,0,0,2.317.837,9.689,9.689,0,0,0,2.191-.24,10.941,10.941,0,0,0,2.156-.769v2.707a8.225,8.225,0,0,1-1.961.681A12.37,12.37,0,0,1-55.41,41.147Zm-.494-10.8a2.219,2.219,0,0,0-1.744.706,3.256,3.256,0,0,0-.721,2h4.908a2.918,2.918,0,0,0-.678-2A2.285,2.285,0,0,0-55.9,30.342Z" transform="translate(124.513 -27.831)" fill="#202940"/>
      <path id="Path_28438" data-name="Path 28438" d="M-39.373,40.917h-3.5v-7.49a3.6,3.6,0,0,0-.494-2.082,1.8,1.8,0,0,0-1.571-.693,2.365,2.365,0,0,0-2.122.981,6.079,6.079,0,0,0-.653,3.252v6.033h-3.5V28.094h2.672l.471,1.641h.194a3.714,3.714,0,0,1,1.611-1.406,5.494,5.494,0,0,1,2.334-.475,4.482,4.482,0,0,1,3.4,1.21,4.852,4.852,0,0,1,1.157,3.492Z" transform="translate(132.614 -27.831)" fill="#202940"/>
    </g>
  </g>
  <g id="Group_19038" data-name="Group 19038" transform="translate(0.531 18.042)">
    <g id="Group_19037" data-name="Group 19037">
      <path id="Path_28439" data-name="Path 28439" d="M-95.316,41.264l1.476,5.672c.322,1.247.622,2.4.83,3.553h.068c.254-1.131.623-2.329.991-3.529l1.823-5.7h1.706l1.73,5.581c.415,1.338.737,2.513.991,3.644h.07a33.268,33.268,0,0,1,.853-3.621l1.59-5.6h2.007l-3.6,11.162h-1.846L-88.329,47.1a37.687,37.687,0,0,1-.993-3.667h-.046a33.35,33.35,0,0,1-1.014,3.69l-1.8,5.3h-1.844l-3.367-11.162Z" transform="translate(97.393 -35.8)" fill="#202940"/>
      <path id="Path_28440" data-name="Path 28440" d="M-74.023,46.861c0,4.127-2.858,5.928-5.556,5.928-3.021,0-5.35-2.213-5.35-5.744,0-3.735,2.443-5.926,5.534-5.926C-76.189,41.119-74.023,43.448-74.023,46.861Zm-8.854.116c0,2.445,1.406,4.29,3.388,4.29,1.939,0,3.39-1.823,3.39-4.336,0-1.891-.946-4.29-3.343-4.29S-82.877,44.854-82.877,46.977Z" transform="translate(106.755 -35.909)" fill="#202940"/>
      <path id="Path_28441" data-name="Path 28441" d="M-74.562,44.854c0-1.313-.023-2.443-.091-3.481h1.774l.07,2.191h.093a3.348,3.348,0,0,1,3.089-2.445,2.137,2.137,0,0,1,.576.07V43.1a3.061,3.061,0,0,0-.692-.07,2.845,2.845,0,0,0-2.72,2.606,5.6,5.6,0,0,0-.093.946v5.95h-2.007Z" transform="translate(114.474 -35.909)" fill="#202940"/>
      <path id="Path_28442" data-name="Path 28442" d="M-66.178,48.618h.046c.278-.391.669-.876.993-1.268l3.273-3.851h2.445l-4.311,4.59,4.912,6.572h-2.469l-3.849-5.35-1.038,1.152v4.2h-2.007V38.288h2.007Z" transform="translate(119.332 -38.036)" fill="#202940"/>
      <path id="Path_28443" data-name="Path 28443" d="M-58.58,54.769V45.152h-1.567V43.608h1.567v-.531a5.258,5.258,0,0,1,1.291-3.9,3.879,3.879,0,0,1,2.721-1.037,4.684,4.684,0,0,1,1.73.322l-.277,1.567a3.041,3.041,0,0,0-1.292-.254c-1.728,0-2.166,1.522-2.166,3.229v.6h2.7v1.544h-2.7v9.617Z" transform="translate(125.37 -38.144)" fill="#202940"/>
      <path id="Path_28444" data-name="Path 28444" d="M-42.969,46.861c0,4.127-2.86,5.928-5.558,5.928-3.021,0-5.35-2.213-5.35-5.744,0-3.735,2.445-5.926,5.534-5.926C-45.137,41.119-42.969,43.448-42.969,46.861Zm-8.855.116c0,2.445,1.406,4.29,3.388,4.29,1.939,0,3.392-1.823,3.392-4.336,0-1.891-.947-4.29-3.345-4.29S-51.825,44.854-51.825,46.977Z" transform="translate(130.079 -35.909)" fill="#202940"/>
      <path id="Path_28445" data-name="Path 28445" d="M-43.508,44.854c0-1.313-.025-2.443-.093-3.481h1.776l.068,2.191h.093a3.35,3.35,0,0,1,3.091-2.445,2.146,2.146,0,0,1,.576.07V43.1a3.084,3.084,0,0,0-.692-.07,2.846,2.846,0,0,0-2.721,2.606,5.784,5.784,0,0,0-.093.946v5.95h-2.005Z" transform="translate(137.798 -35.909)" fill="#202940"/>
      <path id="Path_28446" data-name="Path 28446" d="M-29.357,52.11a7.48,7.48,0,0,1-3.206.646c-3.366,0-5.556-2.283-5.556-5.7a5.672,5.672,0,0,1,6-5.928,6.78,6.78,0,0,1,2.812.578l-.461,1.567a4.707,4.707,0,0,0-2.352-.531c-2.56,0-3.944,1.891-3.944,4.22a3.827,3.827,0,0,0,3.874,4.175,5.787,5.787,0,0,0,2.49-.553Z" transform="translate(141.915 -35.9)" fill="#202940"/>
      <path id="Path_28447" data-name="Path 28447" d="M-27.725,47.323A3.575,3.575,0,0,0-23.9,51.2a7.359,7.359,0,0,0,3.091-.576l.345,1.452a9.013,9.013,0,0,1-3.712.693c-3.436,0-5.488-2.261-5.488-5.628s1.982-6.019,5.234-6.019c3.644,0,4.611,3.206,4.611,5.259a7.425,7.425,0,0,1-.068.946Zm5.949-1.453c.023-1.291-.529-3.3-2.812-3.3-2.052,0-2.952,1.891-3.114,3.3Z" transform="translate(148.268 -35.909)" fill="#202940"/>
    </g>
  </g>
  <circle id="Ellipse_1585" data-name="Ellipse 1585" cx="3.433" cy="3.433" r="3.433" transform="translate(100.526 6.613)" fill="#ff6139"/>
  <circle id="Ellipse_1586" data-name="Ellipse 1586" cx="3.433" cy="3.433" r="3.433" transform="translate(105.791 0.089)" fill="#ff6139"/>
  <circle id="Ellipse_1587" data-name="Ellipse 1587" cx="3.433" cy="3.433" r="3.433" transform="translate(111.314 6.613)" fill="#ff6139"/>
  <circle id="Ellipse_1588" data-name="Ellipse 1588" cx="3.433" cy="3.433" r="3.433" transform="translate(122.421 6.613)" fill="#ff6139"/>
  <circle id="Ellipse_1589" data-name="Ellipse 1589" cx="3.433" cy="3.433" r="3.433" transform="translate(116.795 0.089)" fill="#ff6139"/>
</svg>
