<svg xmlns="http://www.w3.org/2000/svg" width="49.467" height="47.519" viewBox="0 0 49.467 47.519">
    <defs>
        <style>
            .cls-1{fill:none;stroke:#202940;stroke-linecap:round;stroke-linejoin:round;stroke-width:1.5px}
        </style>
    </defs>
    <g id="Group_19070" transform="translate(-27.442 -223.43)">
        <circle id="Ellipse_1604" cx="4.532" cy="4.532" r="4.532" class="cls-1" transform="translate(47.643 261.134)"/>
        <path id="Path_28485" d="M50.206 268.676a24.477 24.477 0 0 1-1.706-1.836 2.141 2.141 0 0 1-.571-1.743l.347-3.049-3.745-.624-.582 5.386a4.31 4.31 0 0 0 1.177 3.6l3.741 3.847" class="cls-1" transform="translate(-3.019 -7.17)"/>
        <path id="Path_28486" d="M45.248 260.92c.121-2.062.666-2.819 1.409-2.858s2-.014 1.746 1.3l-.382 1.953" class="cls-1" transform="translate(-3.278 -6.521)"/>
        <path id="Path_28487" d="M64.065 268.676a24.393 24.393 0 0 0 1.708-1.836 2.141 2.141 0 0 0 .57-1.743L66 262.048l3.745-.624.581 5.386a4.31 4.31 0 0 1-1.177 3.6l-3.74 3.847" class="cls-1" transform="translate(-6.902 -7.17)"/>
        <path id="Path_28488" d="M69.765 260.92c-.121-2.062-.665-2.819-1.409-2.858s-2-.014-1.746 1.3.383 1.953.383 1.953" class="cls-1" transform="translate(-7.386 -6.521)"/>
        <path id="Path_28489" d="M78.581 228.653a4.532 4.532 0 1 1-1.658 6.191 4.532 4.532 0 0 1 1.658-6.191z" class="cls-1" transform="translate(-9.262 -.741)"/>
        <path id="Path_28490" d="M79.417 241.2a24.611 24.611 0 0 1-.737 2.4 2.139 2.139 0 0 1-1.224 1.365l-2.814 1.223 1.332 3.556 4.955-2.19a4.306 4.306 0 0 0 2.531-2.82l1.461-5.162" class="cls-1" transform="translate(-8.939 -2.96)"/>
        <path id="Path_28491" d="M75.283 250.963c-1.846.926-2.774.833-3.179.209s-1.013-1.728.252-2.161l1.882-.645" class="cls-1" transform="translate(-8.353 -4.655)"/>
        <path id="Path_28492" d="M72.2 229.6a24.57 24.57 0 0 0-2.444-.56 2.141 2.141 0 0 0-1.795.377L65.5 231.24l-2.413-2.932 4.374-3.2a4.311 4.311 0 0 1 3.709-.782l5.2 1.316" class="cls-1" transform="translate(-6.713)"/>
        <path id="Path_28493" d="M63.076 229.691c-1.726 1.136-2.109 1.986-1.771 2.65s.99 1.741 2 .862l1.5-1.308" class="cls-1" transform="translate(-6.349 -1.058)"/>
        <path id="Path_28494" d="M30.5 236.5a4.532 4.532 0 1 1 6.192-1.659A4.533 4.533 0 0 1 30.5 236.5z" class="cls-1" transform="translate(0 -.741)"/>
        <path id="Path_28495" d="M40.4 229.6a24.552 24.552 0 0 1 2.445-.56 2.139 2.139 0 0 1 1.794.377l2.467 1.826 2.413-2.932-4.374-3.2a4.309 4.309 0 0 0-3.708-.782l-5.2 1.316" class="cls-1" transform="translate(-1.542)"/>
        <path id="Path_28496" d="M51.838 229.691c1.725 1.136 2.109 1.986 1.771 2.65s-.99 1.741-2 .862l-1.5-1.308" class="cls-1" transform="translate(-4.214 -1.058)"/>
        <path id="Path_28497" d="M33.906 241.2a24.475 24.475 0 0 0 .736 2.4 2.139 2.139 0 0 0 1.224 1.365l2.814 1.223-1.331 3.556-4.956-2.19a4.306 4.306 0 0 1-2.531-2.82l-1.462-5.168" class="cls-1" transform="translate(-.033 -2.96)"/>
        <path id="Path_28498" d="M39.611 250.963c1.846.926 2.774.833 3.179.209s1.013-1.728-.252-2.161l-1.882-.645" class="cls-1" transform="translate(-2.192 -4.655)"/>
        <path id="Path_28499" d="M78.125 250.962a17.72 17.72 0 0 1-6.5 11.546" class="cls-1" transform="translate(-8.358 -5.155)"/>
        <path id="Path_28500" d="M50.259 227.24a17.822 17.822 0 0 1 12.162-.057" class="cls-1" transform="translate(-4.243 -.374)"/>
        <path id="Path_28501" d="M42.411 262.387a17.712 17.712 0 0 1-6.287-11.236" class="cls-1" transform="translate(-1.52 -5.191)"/>
    </g>
</svg>
