<svg xmlns="http://www.w3.org/2000/svg" width="57" height="57" viewBox="0 0 57 57">
    <path fill-rule="evenodd" d="M105.88 676.835l7.748 5.364a.864.864 0 0 1-.983 1.42l-7.749-5.364a4.321 4.321 0 0 1-4.956.726l-7.72 9.65a.864.864 0 0 1-.965.274l-8.106-2.895a4.322 4.322 0 0 1-5.63 1.625l-6.885 8.765a.864.864 0 1 1-1.358-1.067l6.886-8.764a4.318 4.318 0 1 1 7.611-2.793 4.356 4.356 0 0 1-.043.61l7.526 2.688 7.336-9.17a4.317 4.317 0 1 1 7.289-1.065zm-26.426 9.528a2.591 2.591 0 1 0-2.591-2.591 2.591 2.591 0 0 0 2.592 2.592zm22.455-8.636a2.591 2.591 0 1 0-2.591-2.591 2.591 2.591 0 0 0 2.591 2.591zm0 34.545v-4.318a.864.864 0 1 1 1.727 0v4.318h9.5a.864.864 0 0 1 0 1.727H57.864a.864.864 0 0 1-.864-.864v-55.271a.864.864 0 1 1 1.727 0v9.5h3.455a.864.864 0 0 1 0 1.727h-3.455v13.818h3.455a.864.864 0 0 1 0 1.727h-3.455v13.818h3.455a.864.864 0 1 1 0 1.727h-3.455v12.091h12.091v-4.318a.864.864 0 1 1 1.727 0v4.318h13.819v-4.318a.864.864 0 1 1 1.727 0v4.318z" transform="translate(-57 -657)"/>
</svg>
