<svg xmlns="http://www.w3.org/2000/svg" width="44.487" height="47.937" viewBox="0 0 44.487 47.937">
    <defs>
        <style>
            .cls-1{fill:none;stroke:#202940;stroke-linecap:round;stroke-linejoin:round;stroke-width:1.5px}
        </style>
    </defs>
    <g id="Group_19069" transform="translate(-25.551 -119.179)">
        <path id="Path_28480" d="M36.927 150.251l-3.047-.758-1.915-3.024a1.633 1.633 0 0 0-2.874 1.551l2.088 3.606a1.493 1.493 0 0 0 .892.692l2.845.8s-.853 4.679-.771 4.987l-.22 7.408-1.9 4.346a1.684 1.684 0 0 0 .766 2 1.635 1.635 0 0 0 2.331-.958l1.983-4.611.063-.316.433-5.4 2.628 4.48 1.34 5.794a1.634 1.634 0 0 0 1.574 1.2 1.664 1.664 0 0 0 .762-.187 1.683 1.683 0 0 0 .794-1.948l-1.4-6.025a1.625 1.625 0 0 0-.27-.549l-3.052-4.8c.068-.143.827-5.028.827-5.028a1.624 1.624 0 0 0 .515-.241l4.77-3.451a1.632 1.632 0 0 0 .675-1.293l.593-6.1a1.632 1.632 0 0 0-1.6-1.661h-.03a1.632 1.632 0 0 0-1.632 1.6l-.579 5.284-2.789 2.218" class="cls-1" transform="translate(-.714 -5.74)"/>
        <path id="Path_28481" d="M41.122 152.11a3.11 3.11 0 1 1 2.528-4.921 3.111 3.111 0 0 1-2.528 4.921z" class="cls-1" transform="translate(-3.226 -7.152)"/>
        <path id="Path_28482" d="M68.063 145.162l-2.754-1.345-1.213-4.46a1.633 1.633 0 1 0-3.109 1l1.5 5.368a1.634 1.634 0 0 0 1.227 1.1l3.825 1.564s.372 5.5.44 5.645c0 0-3.041 6.878-3.094 7.084l-2.074 6.411a1.633 1.633 0 1 0 3.16.824l1.992-6.1 2.534-6.134s.674 6.614.709 6.733l1.2 5.544a1.633 1.633 0 0 0 1.567 1.177 1.615 1.615 0 0 0 .457-.066 1.633 1.633 0 0 0 1.111-2.024l-1.141-5.364-.769-8.6c.083-.308-.262-5.395-.262-5.395l3.451-5.488a1.632 1.632 0 0 0 .38-1.048l-1.692-8.6a1.633 1.633 0 1 0-3.238.419L73.934 141l-1.421 2.766" class="cls-1" transform="translate(-9.535 -3.207)"/>
        <path id="Path_28483" d="M71.883 148.447a3.111 3.111 0 1 1 .515-.042 3.173 3.173 0 0 1-.515.042z" class="cls-1" transform="translate(-11.703 -6.143)"/>
        <path id="Path_28484" d="M69.288 119.929h-7.51l1.862 2.371-11 8.656-10.748.093a2.028 2.028 0 0 0-.546.164l-8.462 3.907-6.534.88-.049 4.116 7.388-.981a2.048 2.048 0 0 0 .617-.174l8.5-3.923 10.992-.13a2.038 2.038 0 0 0 .949-.411l11.417-8.985 1.931 2.46z" class="cls-1"/>
    </g>
</svg>
