<svg xmlns="http://www.w3.org/2000/svg" width="15.242" height="12.388" viewBox="0 0 15.242 12.388">
    <path fill="#fff" d="M15.243 4.466a6.207 6.207 0 0 1-1.8.492 3.139 3.139 0 0 0 1.376-1.729 6.262 6.262 0 0 1-1.986.759A3.131 3.131 0 0 0 7.507 6.84a8.88 8.88 0 0 1-6.445-3.268 3.132 3.132 0 0 0 .968 4.176 3.118 3.118 0 0 1-1.417-.391v.039a3.129 3.129 0 0 0 2.508 3.067 3.142 3.142 0 0 1-1.412.054 3.131 3.131 0 0 0 2.921 2.171 6.273 6.273 0 0 1-3.883 1.339A6.32 6.32 0 0 1 0 13.984a8.858 8.858 0 0 0 4.794 1.4 8.837 8.837 0 0 0 8.9-8.9c0-.135 0-.271-.01-.4a6.344 6.344 0 0 0 1.559-1.618z" transform="translate(-.001 -3)"/>
</svg>
